<?xml version="1.0" encoding="UTF-8"?>
<!-- Created with Inkscape (http://www.inkscape.org/) -->
<svg width="128" height="128" version="1.1" viewBox="0 0 33.867 33.867" xmlns="http://www.w3.org/2000/svg" xmlns:cc="http://creativecommons.org/ns#" xmlns:dc="http://purl.org/dc/elements/1.1/" xmlns:rdf="http://www.w3.org/1999/02/22-rdf-syntax-ns#">
 <title>mineavganger.no logo</title>
 <metadata>
  <rdf:RDF>
   <cc:Work rdf:about="">
    <dc:format>image/svg+xml</dc:format>
    <dc:type rdf:resource="http://purl.org/dc/dcmitype/StillImage"/>
    <dc:title>mineavganger.no logo</dc:title>
    <dc:date>2019-11-24</dc:date>
    <dc:creator>
     <cc:Agent>
      <dc:title>Øyvind Stegard</dc:title>
     </cc:Agent>
    </dc:creator>
    <cc:license rdf:resource="http://creativecommons.org/licenses/by/4.0/"/>
    <dc:rights>
     <cc:Agent>
      <dc:title>Copyright</dc:title>
     </cc:Agent>
    </dc:rights>
   </cc:Work>
   <cc:License rdf:about="http://creativecommons.org/licenses/by/4.0/">
    <cc:permits rdf:resource="http://creativecommons.org/ns#Reproduction"/>
    <cc:permits rdf:resource="http://creativecommons.org/ns#Distribution"/>
    <cc:requires rdf:resource="http://creativecommons.org/ns#Notice"/>
    <cc:requires rdf:resource="http://creativecommons.org/ns#Attribution"/>
    <cc:permits rdf:resource="http://creativecommons.org/ns#DerivativeWorks"/>
   </cc:License>
  </rdf:RDF>
 </metadata>
 <path d="m16.838 1.0594c-8.7458-3e-7 -15.836 7.0899-15.836 15.836 0 8.7458 7.0899 15.836 15.836 15.836 8.7458 0 15.836-7.0899 15.836-15.836 0-8.7458-7.0899-15.836-15.836-15.836z" fill="#e60025" stroke="#000" stroke-opacity=".14815" stroke-width="1.3229"/>
 <circle cx="16.838" cy="16.895" r="13.008" fill="none" stroke="#fff" stroke-opacity=".86131" stroke-width="3"/>
 <circle cx="16.838" cy="16.84" r="1.7594" fill="#fff" stroke-width="1.0562"/>
 <path d="m16.838 6.87v7.0158" fill="none" stroke="#fff" stroke-width="2.3932"/>
 <path d="m16.838 19.87v7.0158" fill="none" stroke="#fff" stroke-width="2.3932"/>
 <path d="m11.513 24.532c-0.53143-0.2009-0.95078-0.48902-1.4534-0.99864-2.3668-2.3994-2.763-7.4807-0.8785-11.263 0.19671-0.39479 0.52958-0.95474 0.7397-1.2443 0.58508-0.80632 1.6243-1.7166 2.2028-1.9295 0.10115-0.037223 0.10657 0.35776 0.10657 7.7733v7.8125l-0.16745-0.0026c-0.09209-0.0013-0.33944-0.06798-0.54964-0.1474z" fill="#fff" stroke="#000" stroke-opacity=".14815" stroke-width="1.3229"/>
</svg>
